<svg width="244" height="53" viewBox="0 0 244 53" fill="none" xmlns="http://www.w3.org/2000/svg">
<path d="M58.9087 21.525C57.2087 21.525 55.8337 22.15 54.9337 23.075V16.725H51.7587V35H54.9337V27.075C54.9587 25.6 56.2587 24.375 57.9837 24.35C59.7837 24.35 60.9587 25.475 60.9587 27.375V35H64.1587V26.775C64.1587 23.65 62.1587 21.525 58.9087 21.525ZM69.3437 29.425H79.5687C79.6187 29.15 79.6437 28.65 79.6437 28.15C79.6437 24.775 77.1187 21.525 72.9687 21.525C69.1937 21.525 66.2187 24.6 66.2187 28.425C66.2187 32.35 68.9687 35.325 73.1687 35.325C76.3687 35.325 78.1187 33.975 79.1187 32.35L76.6187 30.75C76.0187 31.925 75.0687 32.6 73.2687 32.6C71.2937 32.6 69.7687 31.4 69.3437 29.425ZM69.3437 27.2C69.7437 25.175 71.1937 24.025 73.0437 24.025C74.8937 24.025 76.2437 25.225 76.5937 27.2H69.3437ZM92.0124 21.825V23.7C91.0374 22.425 89.5624 21.725 87.6624 21.725C83.8874 21.725 81.1374 24.475 81.1374 28.425C81.1374 32.35 83.8874 35.3 87.6624 35.3C89.5624 35.3 91.0374 34.525 92.0124 33.225V35H94.9624V21.825H92.0124ZM88.0874 32.5C85.9124 32.5 84.3124 30.775 84.3124 28.425C84.3124 26.075 85.9124 24.35 88.0874 24.35C90.3624 24.35 91.9124 26 91.9124 28.425C91.9124 30.825 90.3624 32.5 88.0874 32.5ZM97.9013 35H101.076V16.725H97.9013V35ZM109.904 35H111.979V32.225H110.529C109.104 32.225 108.329 31.4 108.329 29.875V24.55H111.879V21.825H108.429V18.4H105.329V20.475C105.329 21.375 104.904 21.825 104.029 21.825H102.829V24.55H105.129V30.225C105.129 33.125 106.754 35 109.904 35ZM120.969 21.525C119.269 21.525 117.894 22.15 116.994 23.075V16.725H113.819V35H116.994V27.075C117.019 25.6 118.319 24.375 120.044 24.35C121.844 24.35 123.019 25.475 123.019 27.375V35H126.219V26.775C126.219 23.65 124.219 21.525 120.969 21.525ZM137.714 21.825L133.989 32.45L130.589 21.825H127.314L131.964 35H132.964L131.164 39.475H134.289L135.989 35L141.014 21.825H137.714Z" fill="#2B2725"/>
<path d="M149.129 18.925H149.929V16.425H149.004C145.529 16.425 143.679 18.425 143.679 21.65V21.825H141.529V24.55H143.679V35H146.854V24.55H149.879V21.825H146.854V21.325C146.854 19.825 147.679 18.925 149.129 18.925ZM161.47 21.825V23.7C160.495 22.425 159.02 21.725 157.12 21.725C153.345 21.725 150.595 24.475 150.595 28.425C150.595 32.35 153.345 35.3 157.12 35.3C159.02 35.3 160.495 34.525 161.47 33.225V35H164.42V21.825H161.47ZM157.545 32.5C155.37 32.5 153.77 30.775 153.77 28.425C153.77 26.075 155.37 24.35 157.545 24.35C159.82 24.35 161.37 26 161.37 28.425C161.37 30.825 159.82 32.5 157.545 32.5ZM172.009 35.3C175.309 35.3 177.459 33.75 177.459 31.125C177.459 26.3 170.234 27.675 170.234 25.275C170.234 24.475 170.859 23.975 172.034 23.975C173.134 23.975 173.909 24.45 174.259 25.45L177.034 24.375C176.484 22.575 174.634 21.525 172.084 21.525C168.984 21.525 166.984 23.025 166.984 25.425C166.984 29.95 174.209 28.75 174.209 31.35C174.209 32.275 173.409 32.8 172.134 32.8C170.534 32.8 169.509 32.075 169.134 30.85L166.359 31.925C167.084 34.15 169.159 35.3 172.009 35.3ZM185.246 35H187.321V32.225H185.871C184.446 32.225 183.671 31.4 183.671 29.875V24.55H187.221V21.825H183.771V18.4H180.671V20.475C180.671 21.375 180.246 21.825 179.371 21.825H178.171V24.55H180.471V30.225C180.471 33.125 182.096 35 185.246 35ZM195.662 18.925H196.462V16.425H195.537C192.062 16.425 190.212 18.425 190.212 21.65V21.825H188.062V24.55H190.212V35H193.387V24.55H196.412V21.825H193.387V21.325C193.387 19.825 194.212 18.925 195.662 18.925ZM204.154 35.3C208.254 35.3 211.179 32.35 211.179 28.425C211.179 24.475 208.254 21.525 204.154 21.525C200.029 21.525 197.129 24.475 197.129 28.425C197.129 32.35 200.029 35.3 204.154 35.3ZM204.179 32.475C201.879 32.475 200.304 30.775 200.304 28.425C200.304 26.05 201.879 24.375 204.179 24.375C206.454 24.375 207.979 26.05 207.979 28.4C207.979 30.775 206.429 32.475 204.179 32.475ZM219.803 35.3C223.903 35.3 226.828 32.35 226.828 28.425C226.828 24.475 223.903 21.525 219.803 21.525C215.678 21.525 212.778 24.475 212.778 28.425C212.778 32.35 215.678 35.3 219.803 35.3ZM219.828 32.475C217.528 32.475 215.953 30.775 215.953 28.425C215.953 26.05 217.528 24.375 219.828 24.375C222.103 24.375 223.628 26.05 223.628 28.4C223.628 30.775 222.078 32.475 219.828 32.475ZM239.077 16.725V23.275C238.052 22.175 236.627 21.525 234.877 21.525C231.102 21.525 228.427 24.475 228.427 28.425C228.427 32.35 231.177 35.3 234.952 35.3C236.802 35.3 238.277 34.575 239.302 33.325V35H242.252V16.725H239.077ZM235.377 32.5C233.202 32.5 231.602 30.775 231.602 28.425C231.602 26.075 233.202 24.35 235.377 24.35C237.652 24.35 239.202 26 239.202 28.425C239.202 30.825 237.652 32.5 235.377 32.5Z" fill="#8C827B"/>
<path d="M37 23V24.2H38.2V23H37ZM2 23H0.8V24.2H2V23ZM9 16.2H30V13.8H9V16.2ZM35.8 22V23H38.2V22H35.8ZM37 21.8H2V24.2H37V21.8ZM3.2 23V22H0.8V23H3.2ZM30 16.2C33.2033 16.2 35.8 18.7967 35.8 22H38.2C38.2 17.4713 34.5287 13.8 30 13.8V16.2ZM9 13.8C4.47127 13.8 0.8 17.4713 0.8 22H3.2C3.2 18.7967 5.79675 16.2 9 16.2V13.8Z" fill="#231F1F"/>
<path d="M2 42C2 43.6569 3.34315 45 5 45H34C35.6569 45 37 43.6569 37 42V40H2V42Z" stroke="#231F1F" stroke-width="2.4"/>
<path d="M2 34C2 35.1046 2.89543 36 4 36H35C36.1046 36 37 35.1046 37 34V34C37 32.8954 36.1046 32 35 32H4C2.89543 32 2 32.8954 2 34V34Z" stroke="#231F1F" stroke-width="2.4" stroke-linejoin="round"/>
<mask id="path-5-inside-1_3150_23" fill="white">
<path fill-rule="evenodd" clip-rule="evenodd" d="M20.4599 11.0413C26.1038 12.3733 31.6561 9.31357 32.8613 4.20715C33.0615 3.35868 33.1292 2.5071 33.0768 1.67075C26.8133 0.226202 20.6982 3.50121 19.3982 9.00973C19.2687 9.55829 19.1919 10.1084 19.1646 10.6558C19.5828 10.8071 20.015 10.9363 20.4599 11.0413Z"/>
</mask>
<path d="M33.0768 1.67074L35.4722 1.52086L35.3604 -0.265614L33.6162 -0.667869L33.0768 1.67074ZM19.1646 10.6558L16.7676 10.5364L16.6793 12.3085L18.3477 12.9125L19.1646 10.6558ZM30.5255 3.65587C29.6754 7.25779 25.5905 9.78624 21.0112 8.70547L19.9086 13.3771C26.6172 14.9604 33.6369 11.3693 35.1971 4.75842L30.5255 3.65587ZM30.6815 1.82063C30.7194 2.42566 30.6706 3.04085 30.5255 3.65587L35.1971 4.75842C35.4525 3.67651 35.539 2.58853 35.4722 1.52086L30.6815 1.82063ZM21.734 9.561C22.6665 5.60969 27.2706 2.79467 32.5375 4.00936L33.6162 -0.667869C26.3559 -2.34228 18.7299 1.39271 17.0623 8.45845L21.734 9.561ZM21.5616 10.7751C21.5817 10.3722 21.6383 9.96668 21.734 9.561L17.0623 8.45845C16.8992 9.14989 16.802 9.84458 16.7676 10.5364L21.5616 10.7751ZM21.0112 8.70547C20.6563 8.62173 20.3128 8.51899 19.9815 8.39906L18.3477 12.9125C18.8527 13.0953 19.3736 13.2509 19.9086 13.3771L21.0112 8.70547Z" fill="#231F1F" mask="url(#path-5-inside-1_3150_23)"/>
<path d="M14 5.00002C18 6.5 20 10.5 18.4559 14.5243" stroke="#231F1F" stroke-width="2.4"/>
<path d="M2 27.5C3.2 28.8333 4.4 28.8333 5.6 27.5C6.8 26.1667 8 26.1667 9.2 27.5C10.4 28.8333 11.6 28.8333 12.8 27.5C14 26.1667 15.2 26.1667 16.4 27.5C17.6 28.8333 18.8 28.8333 20 27.5C21.2 26.1667 22.4 26.1667 23.6 27.5C24.8 28.8333 26 28.8333 27.2 27.5C28.4 26.1667 29.6 26.1667 30.8 27.5C32 28.8333 33.2 28.8333 34.4 27.5C35.6 26.1667 36.8 26.1667 38 27.5" stroke="#231F1F" stroke-width="2.4" stroke-linecap="round" stroke-linejoin="round"/>
</svg>
