<svg width="158" height="21" viewBox="0 0 158 21" fill="none" xmlns="http://www.w3.org/2000/svg">
<path d="M11.605 15.5469C11.605 15.8542 11.3706 16.0078 10.9019 16.0078C10.2769 16.0078 9.89406 15.8125 9.75344 15.4219C9.68052 15.2188 9.64406 14.513 9.64406 13.3047C9.64406 12.0911 9.52167 11.4036 9.27688 11.2422C9.12063 11.138 8.48781 11.0859 7.37844 11.0859C6.27427 11.0859 5.64146 11.2031 5.48 11.4375C5.36021 11.6094 5.30031 12.237 5.30031 13.3203C5.30031 14.3984 5.24563 15.0964 5.13625 15.4141C5.02688 15.7266 4.71958 15.8828 4.21438 15.8828C3.70917 15.8828 3.42792 15.776 3.37063 15.5625C3.34979 15.4844 3.33938 15.0104 3.33938 14.1406L3.31594 12.4141L3.355 10.1094L3.32375 7.89062L3.30031 6.5625L3.2925 6.0625L3.28469 5.82031V5.57812C3.28469 5.28125 3.58677 5.13281 4.19094 5.13281C4.61281 5.13281 4.89146 5.30729 5.02688 5.65625C5.09979 5.83333 5.15448 6.34375 5.19094 7.1875C5.2274 8.02604 5.24823 8.46615 5.25344 8.50781C5.31594 8.89844 5.45396 9.17188 5.6675 9.32812C5.88625 9.48438 6.74563 9.5625 8.24563 9.5625C8.93833 9.5625 9.33677 9.42708 9.44094 9.15625C9.5451 8.88021 9.59719 8.23698 9.59719 7.22656C9.59719 6.21615 9.6701 5.59375 9.81594 5.35938C9.96177 5.125 10.3238 5.00781 10.9019 5.00781C11.23 5.00781 11.4253 5.08854 11.4878 5.25C11.5503 5.40625 11.5816 6.0625 11.5816 7.21875V10.125L11.5894 10.4062L11.6128 10.9766L11.605 11.2656C11.5842 11.849 11.5738 12.526 11.5738 13.2969L11.5894 14.4453L11.605 15.0078V15.5469ZM18.9991 10.9062V10.7734C18.9991 10.362 18.861 10.0365 18.585 9.79688C18.309 9.55729 17.9782 9.4375 17.5928 9.4375H17.3975C16.9444 9.4375 16.5642 9.59115 16.2569 9.89844C15.9496 10.2057 15.7959 10.5807 15.7959 11.0234V11.1484C15.7959 11.2891 15.9652 11.3594 16.3037 11.3594H16.7022L16.7491 11.3516L18.4053 11.2734L18.5772 11.2578C18.8584 11.2578 18.9991 11.1406 18.9991 10.9062ZM18.3584 12.6094C16.6761 12.6094 15.835 12.7865 15.835 13.1406C15.835 13.5885 15.9991 13.9427 16.3272 14.2031C16.6553 14.4635 17.0694 14.5938 17.5694 14.5938C18.0694 14.5938 18.5511 14.5286 19.0147 14.3984C19.4782 14.263 19.7907 14.1953 19.9522 14.1953C20.1189 14.1953 20.2569 14.263 20.3662 14.3984C20.4808 14.5286 20.5381 14.7266 20.5381 14.9922C20.5381 15.2526 20.2517 15.5182 19.6787 15.7891C19.111 16.0599 18.5251 16.1953 17.9209 16.1953H17.3506C16.9027 16.1953 16.4287 16.1042 15.9287 15.9219C14.9496 15.5677 14.3168 14.9219 14.0303 13.9844C13.8689 13.4635 13.7881 12.9375 13.7881 12.4062V12.0312C13.7881 10.125 14.46 8.88542 15.8037 8.3125C16.3037 8.09896 16.8715 7.99219 17.5069 7.99219C18.585 7.99219 19.4053 8.26302 19.9678 8.80469C20.2074 9.03906 20.4105 9.3724 20.5772 9.80469C20.7491 10.237 20.835 10.6354 20.835 11V11.5234C20.835 11.9714 20.6735 12.2656 20.3506 12.4062C20.0329 12.5417 19.3689 12.6094 18.3584 12.6094ZM24.6431 13.7031C24.6431 13.9688 24.7759 14.1901 25.0416 14.3672C25.3072 14.5443 25.5936 14.6328 25.9009 14.6328H26.1275C26.6535 14.6328 27.065 14.4427 27.3619 14.0625C27.4921 13.8958 27.5572 13.5573 27.5572 13.0469L27.565 12.9531V12.7578C27.565 12.4297 27.3905 12.2656 27.0416 12.2656H26.4088C25.8358 12.2656 25.3957 12.362 25.0884 12.5547C24.7811 12.7474 24.6275 12.9818 24.6275 13.2578V13.5469C24.6379 13.6198 24.6431 13.6719 24.6431 13.7031ZM27.4791 10.5625C27.4791 9.79688 26.9973 9.41406 26.0338 9.41406C25.6796 9.41406 25.2369 9.48177 24.7056 9.61719C24.1796 9.7526 23.8463 9.82031 23.7056 9.82031C23.565 9.82031 23.4348 9.75 23.315 9.60938C23.2004 9.46875 23.1431 9.29167 23.1431 9.07812C23.1431 8.72917 23.3515 8.45573 23.7681 8.25781C24.3515 7.98177 25.0546 7.84375 25.8775 7.84375H26.0728C27.4114 7.84375 28.3645 8.22396 28.9322 8.98438C29.1509 9.27604 29.2942 9.625 29.3619 10.0312C29.4296 10.4323 29.4634 11.1328 29.4634 12.1328C29.4634 13.1276 29.4973 13.8255 29.565 14.2266C29.6327 14.6276 29.6666 14.9635 29.6666 15.2344C29.6666 15.5 29.6145 15.6953 29.5103 15.8203C29.4061 15.9401 29.1822 16 28.8384 16C28.4947 16 28.2577 15.9661 28.1275 15.8984C27.9973 15.8307 27.8749 15.7448 27.7603 15.6406C27.6509 15.5365 27.5624 15.4844 27.4947 15.4844C27.427 15.4844 27.1275 15.5911 26.5963 15.8047C26.065 16.013 25.6067 16.1172 25.2213 16.1172H25.0338C24.2838 16.1172 23.6952 15.8906 23.2681 15.4375C22.841 14.9792 22.6275 14.4271 22.6275 13.7812V13.3984C22.6275 13.0911 22.7108 12.7812 22.8775 12.4688C23.3358 11.6042 24.4686 11.1354 26.2759 11.0625C26.9009 11.0365 27.2577 11 27.3463 10.9531C27.4348 10.901 27.4791 10.7708 27.4791 10.5625ZM34.8341 14.8594V15.2109C34.8341 15.5911 34.7559 15.8255 34.5997 15.9141C34.4486 15.9974 34.1778 16.0391 33.7872 16.0391H33.3731C32.6231 16.0391 32.2481 15.4505 32.2481 14.2734V14.1484L32.295 13.6328C32.3106 13.4818 32.3184 13.3984 32.3184 13.3828L32.3497 13.1328C32.3757 12.8464 32.3887 12.5156 32.3887 12.1406V11.0156L32.3966 10.7344V9.875L32.4044 9.4375V8.57812L32.4122 8.28906V7.42969L32.42 7.14062C32.42 6.71875 32.3992 6.34115 32.3575 6.00781C32.3158 5.67448 32.295 5.38542 32.295 5.14062C32.295 4.89062 32.3445 4.71354 32.4434 4.60938C32.5476 4.5 32.7507 4.44531 33.0528 4.44531H33.4669C33.9356 4.45052 34.196 4.61458 34.2481 4.9375C34.269 5.08333 34.2794 5.73177 34.2794 6.88281L34.2716 7.03125C34.2716 7.125 34.2716 7.21875 34.2716 7.3125L34.2637 7.45312C34.2637 7.54688 34.2637 7.64062 34.2637 7.73438L34.2559 8.16406V8.73438L34.2481 8.88281V9.59375L34.2403 9.74219V10.4531L34.2325 10.8828V11.75L34.2481 12.3047C34.2481 12.6849 34.3445 13.1797 34.5372 13.7891C34.7351 14.3984 34.8341 14.7552 34.8341 14.8594ZM41.5719 15.3281C41.5719 15.7917 41.0979 16.0234 40.15 16.0234C39.2021 16.0234 38.5328 15.7005 38.1422 15.0547C37.8453 14.5547 37.6969 13.5469 37.6969 12.0312V11.6953L37.6813 11.2109L37.6734 11.0469L37.6656 10.5547C37.6656 10.1849 37.6396 9.94792 37.5875 9.84375C37.5406 9.73438 37.3844 9.60677 37.1188 9.46094C36.8583 9.3151 36.7281 9.125 36.7281 8.89062V8.75C36.7281 8.34375 36.8766 8.07031 37.1734 7.92969C37.4703 7.78385 37.6448 7.64844 37.6969 7.52344C37.7021 7.50781 37.7438 7.27865 37.8219 6.83594C37.9052 6.39323 37.999 6.09375 38.1031 5.9375C38.2125 5.78125 38.4521 5.70312 38.8219 5.70312C39.1969 5.70312 39.4339 5.81771 39.5328 6.04688C39.5693 6.13021 39.6266 6.40365 39.7047 6.86719C39.7828 7.33073 39.8714 7.6224 39.9703 7.74219C40.0693 7.85677 40.3063 7.95052 40.6813 8.02344C41.0563 8.09635 41.2906 8.16927 41.3844 8.24219C41.4833 8.3151 41.5328 8.49219 41.5328 8.77344C41.5328 9.05469 41.4156 9.2474 41.1813 9.35156C41.0875 9.39323 40.8661 9.42969 40.5172 9.46094C40.1682 9.48698 39.9313 9.57031 39.8063 9.71094C39.6865 9.85156 39.6266 10.3411 39.6266 11.1797L39.6188 11.3438C39.6135 11.4531 39.6109 11.5625 39.6109 11.6719L39.6031 11.8359V12.1719C39.6031 13.2292 39.6734 13.862 39.8141 14.0703C39.9599 14.2786 40.2125 14.4036 40.5719 14.4453C40.9313 14.487 41.1865 14.5677 41.3375 14.6875C41.4938 14.8073 41.5719 15.0208 41.5719 15.3281ZM44.7628 15.8984H44.5597C44.3201 15.8984 44.1378 15.8307 44.0128 15.6953C43.8878 15.5547 43.8253 15.2943 43.8253 14.9141L43.8331 14.6719V13.6797L43.8409 13.1875V11.9609L43.8488 11.2188V10.7266L43.8566 9.98438C43.8566 9.57292 43.8566 9.16146 43.8566 8.75L43.8409 7.53906C43.8409 6.01823 43.8488 5.1849 43.8644 5.03906C43.9008 4.70052 44.156 4.53125 44.63 4.53125C45.104 4.53125 45.4113 4.6276 45.5519 4.82031C45.6925 5.01302 45.7628 5.64583 45.7628 6.71875C45.7628 7.79167 45.8878 8.32812 46.1378 8.32812C46.2107 8.32812 46.4243 8.26042 46.7784 8.125C47.1378 7.99479 47.531 7.92969 47.9581 7.92969C48.3748 7.92969 48.7706 8.02604 49.1456 8.21875C49.8488 8.58854 50.2732 9.32292 50.4191 10.4219C50.5024 11.0885 50.5441 12.1354 50.5441 13.5625V14.2656L50.5519 14.4922V14.9609C50.5519 15.3724 50.4868 15.6224 50.3566 15.7109C50.2264 15.7943 49.9738 15.8359 49.5988 15.8359C49.229 15.8359 48.9842 15.6953 48.8644 15.4141C48.8019 15.2682 48.7706 14.474 48.7706 13.0312C48.7706 11.5833 48.7107 10.7161 48.5909 10.4297C48.3774 9.91927 47.9633 9.66406 47.3488 9.66406C46.7342 9.66406 46.3097 9.85156 46.0753 10.2266C45.8461 10.5964 45.7316 11.3568 45.7316 12.5078L45.7003 13.9688C45.7003 14.7917 45.6404 15.3203 45.5206 15.5547C45.406 15.7839 45.1534 15.8984 44.7628 15.8984ZM52.5006 8.82812C52.5006 8.47917 52.7975 8.30469 53.3913 8.30469C53.709 8.30469 53.9433 8.36719 54.0944 8.49219C54.2506 8.61719 54.3756 8.78906 54.4694 9.00781C54.5683 9.22656 54.7715 9.92448 55.0788 11.1016C55.3913 12.2734 55.6959 13.099 55.9928 13.5781L56.0944 13.7109C56.5371 13.7109 57.0084 12.5391 57.5084 10.1953C57.7064 9.26823 57.873 8.68229 58.0084 8.4375C58.1439 8.19271 58.3939 8.07031 58.7584 8.07031C59.3834 8.07031 59.6959 8.20573 59.6959 8.47656C59.6959 8.70573 59.4303 9.86198 58.8991 11.9453C58.3678 14.0286 57.9095 15.4688 57.5241 16.2656C57.1439 17.0625 56.6517 17.724 56.0475 18.25C55.4485 18.776 54.9043 19.0391 54.4147 19.0391C53.9303 19.0391 53.597 18.9271 53.4147 18.7031C53.4147 18.4271 53.5605 18.1562 53.8522 17.8906C53.9303 17.8229 54.1517 17.7292 54.5163 17.6094C54.886 17.4948 55.1621 17.3177 55.3444 17.0781C55.5319 16.8385 55.6256 16.5052 55.6256 16.0781C55.6256 15.8594 55.373 15.3958 54.8678 14.6875C54.3678 13.9792 53.9772 13.3021 53.6959 12.6562C53.4199 12.0104 53.1517 11.2292 52.8913 10.3125C52.6308 9.39062 52.5006 8.89583 52.5006 8.82812ZM65.4806 4.49219C66.3244 4.4974 66.7463 4.76562 66.7463 5.29688C66.7463 5.56771 66.616 5.77083 66.3556 5.90625C66.2358 5.96875 65.965 6.01562 65.5431 6.04688C65.1213 6.07292 64.8114 6.17969 64.6134 6.36719C64.4207 6.55469 64.3244 6.82031 64.3244 7.16406C64.3244 7.5026 64.4181 7.73438 64.6056 7.85938C64.6525 7.89062 64.8426 7.9401 65.1759 8.00781C65.5093 8.07031 65.7593 8.16406 65.9259 8.28906C66.0926 8.41406 66.1759 8.59635 66.1759 8.83594C66.1759 9.07031 66.1291 9.22396 66.0353 9.29688C65.9468 9.36458 65.7931 9.42708 65.5744 9.48438C65.3556 9.54167 65.2384 9.57292 65.2228 9.57812C64.9311 9.6875 64.6942 9.93229 64.5119 10.3125C64.3296 10.6875 64.2384 11.4271 64.2384 12.5312L64.2541 13.0781C64.2593 13.1979 64.2619 13.3177 64.2619 13.4375L64.2775 13.7969C64.2775 13.9792 64.2775 14.1615 64.2775 14.3438C64.2775 15.1719 64.1916 15.6745 64.0197 15.8516C63.8478 16.0286 63.5041 16.1172 62.9884 16.1172C62.6916 16.1172 62.4936 16.013 62.3947 15.8047C62.2957 15.5911 62.2463 15.1667 62.2463 14.5312L62.2853 13.2578L62.2931 13.0781L62.3088 12.8906C62.3192 12.7292 62.3244 12.6094 62.3244 12.5312L62.3322 12.1719V11.8047C62.3322 10.9141 62.2983 10.362 62.2306 10.1484C62.1629 9.9349 62.0145 9.71354 61.7853 9.48438C61.5561 9.25521 61.4416 8.96094 61.4416 8.60156C61.4416 8.3776 61.577 8.16146 61.8478 7.95312C62.1186 7.73958 62.2983 7.50521 62.3869 7.25C62.8296 6.01562 63.1551 5.30208 63.3634 5.10938C63.8061 4.69792 64.452 4.49219 65.3009 4.49219H65.4806ZM69.8512 13.7031C69.8512 13.9688 69.9841 14.1901 70.2497 14.3672C70.5153 14.5443 70.8018 14.6328 71.1091 14.6328H71.3356C71.8617 14.6328 72.2731 14.4427 72.57 14.0625C72.7002 13.8958 72.7653 13.5573 72.7653 13.0469L72.7731 12.9531V12.7578C72.7731 12.4297 72.5986 12.2656 72.2497 12.2656H71.6169C71.044 12.2656 70.6039 12.362 70.2966 12.5547C69.9893 12.7474 69.8356 12.9818 69.8356 13.2578V13.5469C69.846 13.6198 69.8512 13.6719 69.8512 13.7031ZM72.6872 10.5625C72.6872 9.79688 72.2054 9.41406 71.2419 9.41406C70.8877 9.41406 70.445 9.48177 69.9137 9.61719C69.3877 9.7526 69.0544 9.82031 68.9137 9.82031C68.7731 9.82031 68.6429 9.75 68.5231 9.60938C68.4085 9.46875 68.3512 9.29167 68.3512 9.07812C68.3512 8.72917 68.5596 8.45573 68.9762 8.25781C69.5596 7.98177 70.2627 7.84375 71.0856 7.84375H71.2809C72.6195 7.84375 73.5726 8.22396 74.1403 8.98438C74.3591 9.27604 74.5023 9.625 74.57 10.0312C74.6377 10.4323 74.6716 11.1328 74.6716 12.1328C74.6716 13.1276 74.7054 13.8255 74.7731 14.2266C74.8408 14.6276 74.8747 14.9635 74.8747 15.2344C74.8747 15.5 74.8226 15.6953 74.7184 15.8203C74.6143 15.9401 74.3903 16 74.0466 16C73.7028 16 73.4658 15.9661 73.3356 15.8984C73.2054 15.8307 73.083 15.7448 72.9684 15.6406C72.8591 15.5365 72.7705 15.4844 72.7028 15.4844C72.6351 15.4844 72.3356 15.5911 71.8044 15.8047C71.2731 16.013 70.8148 16.1172 70.4294 16.1172H70.2419C69.4919 16.1172 68.9033 15.8906 68.4762 15.4375C68.0492 14.9792 67.8356 14.4271 67.8356 13.7812V13.3984C67.8356 13.0911 67.919 12.7812 68.0856 12.4688C68.544 11.6042 69.6768 11.1354 71.4841 11.0625C72.1091 11.0365 72.4658 11 72.5544 10.9531C72.6429 10.901 72.6872 10.7708 72.6872 10.5625ZM77.1047 10.1953C77.1047 9.2474 77.6438 8.57812 78.7219 8.1875C79.1073 8.04167 79.5292 7.96875 79.9875 7.96875H80.1984C80.8911 7.96875 81.5109 8.0651 82.0578 8.25781C82.6099 8.44531 82.8859 8.68229 82.8859 8.96875C82.8859 9.19271 82.826 9.38802 82.7063 9.55469C82.5917 9.72135 82.4745 9.80469 82.3547 9.80469C82.2401 9.80469 81.938 9.73958 81.4484 9.60938C80.9589 9.47917 80.5188 9.41406 80.1281 9.41406C79.7427 9.41406 79.4432 9.48177 79.2297 9.61719C79.0161 9.7526 78.9094 9.94792 78.9094 10.2031C78.9094 10.4583 79.076 10.6797 79.4094 10.8672C79.55 10.9453 79.813 11.0417 80.1984 11.1562C81.3339 11.4896 82.1125 11.8411 82.5344 12.2109C82.9615 12.5755 83.175 13.0573 83.175 13.6562V13.8594C83.175 14.1719 83.0995 14.4792 82.9484 14.7812C82.7974 15.0833 82.5917 15.3307 82.3313 15.5234C81.7792 15.9349 81.1021 16.1406 80.3 16.1406H79.8703C79.1307 16.1406 78.4693 16.026 77.8859 15.7969C77.3026 15.5677 77.0109 15.3073 77.0109 15.0156C77.0109 14.724 77.1125 14.4766 77.3156 14.2734C77.3885 14.2005 77.5188 14.1641 77.7063 14.1641C77.7271 14.1641 78.0396 14.2526 78.6438 14.4297C79.2583 14.6068 79.774 14.6953 80.1906 14.6953C80.9719 14.6953 81.3625 14.3672 81.3625 13.7109C81.3625 13.4766 81.1672 13.2656 80.7766 13.0781C80.6047 12.9948 80.149 12.8385 79.4094 12.6094C78.6698 12.375 78.1594 12.1458 77.8781 11.9219C77.6021 11.6927 77.4042 11.4479 77.2844 11.1875C77.1646 10.9271 77.1047 10.5964 77.1047 10.1953ZM89.6862 15.3281C89.6862 15.7917 89.2123 16.0234 88.2644 16.0234C87.3165 16.0234 86.6472 15.7005 86.2566 15.0547C85.9597 14.5547 85.8112 13.5469 85.8112 12.0312V11.6953L85.7956 11.2109L85.7878 11.0469L85.78 10.5547C85.78 10.1849 85.754 9.94792 85.7019 9.84375C85.655 9.73438 85.4987 9.60677 85.2331 9.46094C84.9727 9.3151 84.8425 9.125 84.8425 8.89062V8.75C84.8425 8.34375 84.9909 8.07031 85.2878 7.92969C85.5847 7.78385 85.7592 7.64844 85.8112 7.52344C85.8165 7.50781 85.8581 7.27865 85.9362 6.83594C86.0196 6.39323 86.1133 6.09375 86.2175 5.9375C86.3269 5.78125 86.5665 5.70312 86.9362 5.70312C87.3112 5.70312 87.5482 5.81771 87.6472 6.04688C87.6836 6.13021 87.7409 6.40365 87.8191 6.86719C87.8972 7.33073 87.9857 7.6224 88.0847 7.74219C88.1836 7.85677 88.4206 7.95052 88.7956 8.02344C89.1706 8.09635 89.405 8.16927 89.4987 8.24219C89.5977 8.3151 89.6472 8.49219 89.6472 8.77344C89.6472 9.05469 89.53 9.2474 89.2956 9.35156C89.2019 9.39323 88.9805 9.42969 88.6316 9.46094C88.2826 9.48698 88.0456 9.57031 87.9206 9.71094C87.8008 9.85156 87.7409 10.3411 87.7409 11.1797L87.7331 11.3438C87.7279 11.4531 87.7253 11.5625 87.7253 11.6719L87.7175 11.8359V12.1719C87.7175 13.2292 87.7878 13.862 87.9284 14.0703C88.0743 14.2786 88.3269 14.4036 88.6862 14.4453C89.0456 14.487 89.3008 14.5677 89.4519 14.6875C89.6081 14.8073 89.6862 15.0208 89.6862 15.3281ZM95.5413 4.49219C96.385 4.4974 96.8069 4.76562 96.8069 5.29688C96.8069 5.56771 96.6767 5.77083 96.4163 5.90625C96.2965 5.96875 96.0256 6.01562 95.6038 6.04688C95.1819 6.07292 94.872 6.17969 94.6741 6.36719C94.4814 6.55469 94.385 6.82031 94.385 7.16406C94.385 7.5026 94.4788 7.73438 94.6663 7.85938C94.7131 7.89062 94.9032 7.9401 95.2366 8.00781C95.5699 8.07031 95.8199 8.16406 95.9866 8.28906C96.1532 8.41406 96.2366 8.59635 96.2366 8.83594C96.2366 9.07031 96.1897 9.22396 96.0959 9.29688C96.0074 9.36458 95.8538 9.42708 95.635 9.48438C95.4163 9.54167 95.2991 9.57292 95.2834 9.57812C94.9918 9.6875 94.7548 9.93229 94.5725 10.3125C94.3902 10.6875 94.2991 11.4271 94.2991 12.5312L94.3147 13.0781C94.3199 13.1979 94.3225 13.3177 94.3225 13.4375L94.3381 13.7969C94.3381 13.9792 94.3381 14.1615 94.3381 14.3438C94.3381 15.1719 94.2522 15.6745 94.0803 15.8516C93.9084 16.0286 93.5647 16.1172 93.0491 16.1172C92.7522 16.1172 92.5543 16.013 92.4553 15.8047C92.3564 15.5911 92.3069 15.1667 92.3069 14.5312L92.3459 13.2578L92.3538 13.0781L92.3694 12.8906C92.3798 12.7292 92.385 12.6094 92.385 12.5312L92.3928 12.1719V11.8047C92.3928 10.9141 92.359 10.362 92.2913 10.1484C92.2235 9.9349 92.0751 9.71354 91.8459 9.48438C91.6168 9.25521 91.5022 8.96094 91.5022 8.60156C91.5022 8.3776 91.6376 8.16146 91.9084 7.95312C92.1793 7.73958 92.359 7.50521 92.4475 7.25C92.8902 6.01562 93.2157 5.30208 93.4241 5.10938C93.8668 4.69792 94.5126 4.49219 95.3616 4.49219H95.5413ZM101.388 14.6875H101.709C102.276 14.6875 102.701 14.4688 102.982 14.0312C103.263 13.5938 103.404 13.0052 103.404 12.2656V11.8516C103.404 11.0964 103.253 10.5052 102.951 10.0781C102.654 9.64583 102.24 9.42969 101.709 9.42969H101.474C100.959 9.42969 100.545 9.63281 100.232 10.0391C99.9249 10.4401 99.7712 11.0182 99.7712 11.7734V12.2734C99.7712 13.0026 99.9119 13.5885 100.193 14.0312C100.48 14.4688 100.878 14.6875 101.388 14.6875ZM105.318 11.6484V12.1953C105.318 12.7474 105.232 13.2865 105.06 13.8125C104.894 14.3385 104.664 14.763 104.373 15.0859C104.081 15.4036 103.701 15.6667 103.232 15.875C102.769 16.0833 102.261 16.1875 101.709 16.1875H101.295C100.237 16.1875 99.3806 15.8125 98.7244 15.0625C98.1515 14.4115 97.865 13.5026 97.865 12.3359V11.7891C97.865 11.2057 97.9535 10.6667 98.1306 10.1719C98.3129 9.67708 98.5551 9.27083 98.8572 8.95312C99.1645 8.63542 99.5577 8.38802 100.037 8.21094C100.521 8.03385 101.05 7.94531 101.623 7.94531L101.763 7.95312C102.248 7.95312 102.714 8.03646 103.162 8.20312C104.094 8.55729 104.73 9.20052 105.068 10.1328C105.235 10.5859 105.318 11.0911 105.318 11.6484ZM110.618 14.6875H110.939C111.506 14.6875 111.931 14.4688 112.212 14.0312C112.493 13.5938 112.634 13.0052 112.634 12.2656V11.8516C112.634 11.0964 112.483 10.5052 112.181 10.0781C111.884 9.64583 111.47 9.42969 110.939 9.42969H110.704C110.189 9.42969 109.775 9.63281 109.462 10.0391C109.155 10.4401 109.001 11.0182 109.001 11.7734V12.2734C109.001 13.0026 109.142 13.5885 109.423 14.0312C109.71 14.4688 110.108 14.6875 110.618 14.6875ZM114.548 11.6484V12.1953C114.548 12.7474 114.462 13.2865 114.29 13.8125C114.124 14.3385 113.894 14.763 113.603 15.0859C113.311 15.4036 112.931 15.6667 112.462 15.875C111.999 16.0833 111.491 16.1875 110.939 16.1875H110.525C109.467 16.1875 108.611 15.8125 107.954 15.0625C107.381 14.4115 107.095 13.5026 107.095 12.3359V11.7891C107.095 11.2057 107.184 10.6667 107.361 10.1719C107.543 9.67708 107.785 9.27083 108.087 8.95312C108.394 8.63542 108.788 8.38802 109.267 8.21094C109.751 8.03385 110.28 7.94531 110.853 7.94531L110.993 7.95312C111.478 7.95312 111.944 8.03646 112.392 8.20312C113.324 8.55729 113.96 9.20052 114.298 10.1328C114.465 10.5859 114.548 11.0911 114.548 11.6484ZM118.294 11.9297V12.1797C118.294 12.9661 118.411 13.5417 118.645 13.9062C118.958 14.3958 119.346 14.6406 119.809 14.6406H120.106C120.669 14.6406 121.093 14.401 121.38 13.9219C121.546 13.6458 121.63 13.1068 121.63 12.3047V11.4609C121.63 10.7057 121.531 10.2005 121.333 9.94531C121.046 9.57552 120.624 9.39062 120.067 9.39062L119.989 9.39844C118.859 9.39844 118.294 10.2422 118.294 11.9297ZM123.598 14.9688C123.598 14.9688 123.598 14.974 123.598 14.9844C123.598 15.5833 123.283 15.8828 122.653 15.8828C122.361 15.8828 122.174 15.8568 122.091 15.8047C122.012 15.7474 121.932 15.6693 121.848 15.5703C121.765 15.4714 121.7 15.4219 121.653 15.4219C121.611 15.4219 121.502 15.474 121.325 15.5781C120.768 15.9062 120.221 16.0703 119.684 16.0703H119.505C118.572 16.0703 117.835 15.7578 117.294 15.1328C116.752 14.5078 116.481 13.625 116.481 12.4844V12.1016C116.481 11.4818 116.572 10.8776 116.755 10.2891C117.062 9.30469 117.611 8.61979 118.403 8.23438C118.789 8.04688 119.179 7.95312 119.575 7.95312C119.971 7.95312 120.307 7.98698 120.583 8.05469C120.859 8.1224 121.031 8.15625 121.098 8.15625C121.27 8.15625 121.385 8.04167 121.442 7.8125C121.562 7.33333 121.622 6.76042 121.622 6.09375C121.622 5.42708 121.69 4.99479 121.825 4.79688C121.96 4.59896 122.164 4.5 122.434 4.5H122.762C123.127 4.5 123.356 4.58073 123.45 4.74219C123.502 4.83594 123.528 5.05208 123.528 5.39062L123.536 5.57031C123.541 5.6901 123.544 5.83854 123.544 6.01562V6.64062L123.552 7.1875V7.91406L123.559 8.10156V10.1094L123.567 10.4766V11.7734L123.591 13.2031V13.7266L123.598 14.4375V14.9688Z" fill="#000D30"/>
<path d="M126.227 14.9141C126.227 14.5964 126.282 14.362 126.391 14.2109C126.5 14.0547 126.756 13.9766 127.157 13.9766H127.5C127.808 13.9766 128.019 14.026 128.133 14.125C128.248 14.2188 128.305 14.3568 128.305 14.5391C128.326 14.6432 128.336 14.7057 128.336 14.7266L128.36 15V15.1562C128.36 15.5208 128.308 15.776 128.203 15.9219C128.099 16.0677 127.917 16.1406 127.657 16.1406C127.604 16.151 127.565 16.1562 127.539 16.1562L127.352 16.1719H127.117L126.828 16.1406C126.443 16.1406 126.25 15.9115 126.25 15.4531L126.227 15.2266V14.9141ZM134.043 14.6875H134.363C134.931 14.6875 135.355 14.4688 135.637 14.0312C135.918 13.5938 136.058 13.0052 136.058 12.2656V11.8516C136.058 11.0964 135.907 10.5052 135.605 10.0781C135.308 9.64583 134.894 9.42969 134.363 9.42969H134.129C133.613 9.42969 133.199 9.63281 132.887 10.0391C132.579 10.4401 132.426 11.0182 132.426 11.7734V12.2734C132.426 13.0026 132.566 13.5885 132.848 14.0312C133.134 14.4688 133.532 14.6875 134.043 14.6875ZM137.973 11.6484V12.1953C137.973 12.7474 137.887 13.2865 137.715 13.8125C137.548 14.3385 137.319 14.763 137.027 15.0859C136.736 15.4036 136.355 15.6667 135.887 15.875C135.423 16.0833 134.915 16.1875 134.363 16.1875H133.949C132.892 16.1875 132.035 15.8125 131.379 15.0625C130.806 14.4115 130.519 13.5026 130.519 12.3359V11.7891C130.519 11.2057 130.608 10.6667 130.785 10.1719C130.967 9.67708 131.209 9.27083 131.512 8.95312C131.819 8.63542 132.212 8.38802 132.691 8.21094C133.176 8.03385 133.704 7.94531 134.277 7.94531L134.418 7.95312C134.902 7.95312 135.368 8.03646 135.816 8.20312C136.749 8.55729 137.384 9.20052 137.723 10.1328C137.889 10.5859 137.973 11.0911 137.973 11.6484ZM140.171 9.29688V9.05469C140.171 8.7526 140.234 8.53125 140.359 8.39062C140.489 8.25 140.695 8.17969 140.976 8.17969H141.093C141.359 8.17969 141.632 8.27344 141.913 8.46094C142.002 8.51823 142.093 8.60938 142.187 8.73438C142.281 8.85417 142.346 8.91406 142.382 8.91406C142.424 8.91406 142.533 8.84896 142.71 8.71875C142.893 8.58854 143.098 8.47135 143.327 8.36719C143.557 8.25781 143.843 8.20312 144.187 8.20312C144.531 8.20312 144.783 8.27604 144.945 8.42188C145.106 8.56771 145.187 8.70833 145.187 8.84375C145.187 9.21875 145.067 9.51823 144.827 9.74219C144.723 9.84115 144.471 9.89062 144.07 9.89062C143.669 9.89062 143.346 9.94792 143.101 10.0625C142.856 10.1771 142.661 10.3854 142.515 10.6875C142.369 10.9844 142.296 11.8438 142.296 13.2656C142.296 14.6823 142.239 15.4896 142.124 15.6875C142.015 15.8854 141.697 15.9844 141.171 15.9844H141.038L140.906 15.9766C140.614 15.9766 140.429 15.9297 140.351 15.8359C140.273 15.7422 140.234 15.4375 140.234 14.9219L140.304 13.4766L140.32 13.0781V12.3984L140.312 11.9922V11.7188L140.304 11.3203C140.304 11.2318 140.304 11.1432 140.304 11.0547L140.288 10.6562C140.288 10.4375 140.268 10.1771 140.226 9.875C140.189 9.56771 140.171 9.375 140.171 9.29688ZM148.472 12.7578C148.472 13.3828 148.615 13.8854 148.901 14.2656C149.188 14.6458 149.591 14.8359 150.112 14.8359H150.261C150.771 14.8359 151.188 14.6589 151.511 14.3047C151.703 14.0964 151.8 13.7266 151.8 13.1953C151.81 13.0911 151.815 13.0156 151.815 12.9688L151.831 12.5938V11.9922L151.823 11.9141V11.7656C151.813 11.6615 151.807 11.5859 151.807 11.5391C151.807 10.9297 151.693 10.4896 151.464 10.2188C151.235 9.94792 150.873 9.8125 150.378 9.8125H150.222C149.675 9.8125 149.245 9.9974 148.932 10.3672C148.62 10.737 148.464 11.2448 148.464 11.8906L148.448 12.0469V12.3672C148.464 12.5234 148.472 12.6536 148.472 12.7578ZM153.698 15.8516C153.698 17.5182 152.969 18.5964 151.511 19.0859C150.979 19.263 150.438 19.3516 149.886 19.3516H149.659C149.081 19.3516 148.526 19.2474 147.995 19.0391C147.469 18.8359 147.206 18.6042 147.206 18.3438C147.206 18.0833 147.266 17.862 147.386 17.6797C147.511 17.5026 147.693 17.4141 147.932 17.4141C147.99 17.4141 148.235 17.4583 148.667 17.5469C149.104 17.6354 149.508 17.6797 149.878 17.6797C150.529 17.6797 150.992 17.5365 151.268 17.25C151.544 16.9635 151.682 16.5365 151.682 15.9688C151.682 15.7812 151.628 15.6875 151.518 15.6875L150.948 15.8594C150.63 15.9531 150.261 16 149.839 16C149.417 16 149 15.9167 148.589 15.75C148.172 15.5833 147.828 15.3542 147.557 15.0625C147.011 14.474 146.737 13.5833 146.737 12.3906C146.737 12.3802 146.737 12.3698 146.737 12.3594V11.9062C146.737 11.3854 146.813 10.862 146.964 10.3359C147.12 9.8099 147.3 9.41406 147.503 9.14844C147.94 8.57552 148.602 8.28906 149.487 8.28906H149.698C149.99 8.28906 150.326 8.34635 150.706 8.46094L151.097 8.58594C151.43 8.6901 151.625 8.74219 151.682 8.74219C151.74 8.74219 151.883 8.70573 152.112 8.63281C152.347 8.55469 152.591 8.51562 152.847 8.51562C153.268 8.51562 153.513 8.71354 153.581 9.10938C153.602 9.22917 153.612 9.77865 153.612 10.7578V13.0938L153.62 13.3125C153.62 13.4583 153.62 13.6042 153.62 13.75L153.698 15.6406V15.8516Z" fill="#939393"/>
</svg>
