<svg width="222" height="55" viewBox="0 0 222 55" fill="none" xmlns="http://www.w3.org/2000/svg">
<path d="M10.0986 38.7825H36.6875V36.1738H12.7191L10.0986 38.7825Z" fill="#A8A29E"/>
<path d="M1.31055 36.1738V38.7825H6.93545L4.31495 36.1738H1.31055Z" fill="#A8A29E"/>
<path d="M2.97071 27.5062C2.86454 27.6099 2.74693 27.7013 2.62012 27.7786V29.6535H5.73676L3.57977 27.5062C3.49895 27.426 3.38943 27.3809 3.27524 27.3809C3.16106 27.3809 3.05154 27.426 2.97071 27.5062V27.5062Z" fill="#A8A29E"/>
<path d="M15.3389 28.777C14.9128 28.3723 14.3464 28.1465 13.7574 28.1465C13.1684 28.1465 12.6021 28.3723 12.1759 28.777L11.2959 29.653H16.2189L15.3389 28.777Z" fill="#A8A29E"/>
<path d="M11.7917 30.957H1.96484V32.2614H11.7917V30.957Z" fill="#A8A29E"/>
<path d="M8.05344 38.0527C8.17642 38.1747 8.34298 38.2432 8.51663 38.2432C8.69028 38.2432 8.85685 38.1747 8.97983 38.0527L13.4864 33.5664H3.54688L8.05344 38.0527Z" fill="#A8A29E"/>
<path d="M20.5801 25.3116L21.4601 24.4355H16.5371L17.4171 25.3116C17.8369 25.7285 18.4057 25.9626 18.9986 25.9626C19.5916 25.9626 20.1604 25.7285 20.5801 25.3116V25.3116Z" fill="#A8A29E"/>
<path d="M31.0626 25.3116L31.9426 24.4355H27.0195L27.8995 25.3116C28.3193 25.7285 28.8881 25.9626 29.481 25.9626C30.074 25.9626 30.6428 25.7285 31.0626 25.3116V25.3116Z" fill="#A8A29E"/>
<path d="M4.85729 25.0866C4.43112 24.6819 3.86476 24.4561 3.27578 24.4561C2.68679 24.4561 2.12043 24.6819 1.69427 25.0866L1.11879 25.6601C1.02714 25.7513 0.964707 25.8674 0.939387 25.9939C0.914068 26.1204 0.927 26.2515 0.976549 26.3707C1.0261 26.4899 1.11004 26.5917 1.21775 26.6634C1.32546 26.7351 1.45211 26.7734 1.58166 26.7734H1.58199C1.66795 26.7736 1.75311 26.7568 1.83252 26.724C1.91192 26.6912 1.98399 26.643 2.04454 26.5823C2.37142 26.2579 2.81415 26.0758 3.27569 26.0759C3.73722 26.0759 4.1799 26.2582 4.5067 26.5826L6.93525 29.0002C7.35503 29.4171 7.92379 29.6513 8.51676 29.6513C9.10973 29.6513 9.67849 29.4171 10.0983 29.0002L11.2499 27.8538C11.9154 27.1925 12.8174 26.8211 13.7578 26.8211C14.6981 26.8211 15.6001 27.1925 16.2657 27.8538L17.4172 29.0002C17.837 29.4171 18.4058 29.6513 18.9988 29.6513C19.5917 29.6513 20.1605 29.4171 20.5803 29.0002L21.7319 27.8538C22.3975 27.1927 23.2995 26.8214 24.2398 26.8214C25.1801 26.8214 26.082 27.1927 26.7477 27.8538L27.8992 29.0002C28.319 29.4171 28.8878 29.6513 29.4808 29.6513C30.0737 29.6513 30.6425 29.4171 31.0623 29.0002L33.4908 26.5826C33.8175 26.2581 34.2601 26.0758 34.7216 26.0757C35.1831 26.0756 35.6258 26.2576 35.9527 26.5819C36.0773 26.7008 36.2432 26.7672 36.4158 26.7673C36.5884 26.7673 36.7544 26.7011 36.8791 26.5823C37.0017 26.4599 37.0706 26.2941 37.0706 26.1212C37.0706 25.9484 37.0017 25.7825 36.8791 25.6601L36.303 25.0866C35.8769 24.6819 35.3106 24.4561 34.7216 24.4561C34.1327 24.4561 33.5664 24.6819 33.1403 25.0866L31.9887 26.233C31.3231 26.8943 30.4212 27.2657 29.4808 27.2657C28.5404 27.2657 27.6385 26.8943 26.9729 26.233L25.8213 25.0866C25.4015 24.6697 24.8328 24.4355 24.2398 24.4355C23.6468 24.4355 23.0781 24.6697 22.6583 25.0866L21.5067 26.233C20.8411 26.8943 19.9392 27.2657 18.9988 27.2657C18.0584 27.2657 17.1565 26.8943 16.4909 26.233L15.3393 25.0866C14.9195 24.6697 14.3508 24.4355 13.7578 24.4355C13.1648 24.4355 12.5961 24.6697 12.1763 25.0866L11.0247 26.233C10.3591 26.8943 9.45717 27.2657 8.5168 27.2657C7.57643 27.2657 6.67448 26.8943 6.0089 26.233L4.85729 25.0866Z" fill="#A8A29E"/>
<path d="M1.69415 33.5664H0V34.8708H3.0044L1.69415 33.5664Z" fill="#A8A29E"/>
<path d="M24.8948 32.2614V30.957H13.1025V32.2614H15.0679H24.8948Z" fill="#A8A29E"/>
<path d="M10.0977 25.3116L10.9777 24.4355H6.05469L6.93469 25.3116C7.35447 25.7285 7.92323 25.9626 8.5162 25.9626C9.10917 25.9626 9.67793 25.7285 10.0977 25.3116V25.3116Z" fill="#A8A29E"/>
<path d="M30.1359 14H7.86165C5.95106 14.0021 4.11935 14.7587 2.76836 16.1036C1.41737 17.4485 0.657432 19.2719 0.655273 21.1739V23.1304H37.3423V21.1739C37.3401 19.2719 36.5802 17.4485 35.2292 16.1036C33.8782 14.7587 32.0465 14.0021 30.1359 14V14ZM5.0492 18.3741L4.12285 17.452L5.4331 16.1476L6.35945 17.0698L5.0492 18.3741ZM8.05356 20.9828L6.74331 19.6785L7.6697 18.7563L8.97995 20.0607L8.05356 20.9828ZM11.3292 15.4954L12.2556 16.4176L10.9453 17.722L10.019 16.7998L11.3292 15.4954ZM11.6004 21.635L10.6741 20.7128L11.9843 19.4085L12.9107 20.3307L11.6004 21.635ZM16.3783 19.8696H15.068V17.913H16.3783V19.8696ZM19.1907 15.4954L20.1171 16.4176L18.8068 17.722L17.8805 16.7998L19.1907 15.4954ZM19.8458 21.635L18.5356 20.3307L19.4619 19.4085L20.7722 20.7128L19.8458 21.635ZM23.1215 19.6785L21.8112 18.3742L22.7376 17.452L24.0478 18.7563L23.1215 19.6785ZM25.55 17.2609H24.2398V15.3043H25.55V17.2609ZM28.1705 21.1739H26.2051V19.8696H28.1705V21.1739ZM28.6337 17.722L27.7073 16.7998L29.0176 15.4954L29.9439 16.4176L28.6337 17.722ZM32.1013 21.8261H30.791V19.8696H32.1013V21.8261ZM32.9483 18.3741L31.6381 17.0698L32.5644 16.1476L33.8747 17.452L32.9483 18.3741Z" fill="#A8A29E"/>
<path d="M0.655273 42.0444C0.655842 42.5631 0.863091 43.0605 1.23155 43.4273C1.6 43.7941 2.09957 44.0004 2.62065 44.0009H35.3769C35.898 44.0004 36.3975 43.7941 36.766 43.4273C37.1345 43.0605 37.3417 42.5631 37.3423 42.0444V40.0879H0.655273V42.0444Z" fill="#A8A29E"/>
<path d="M25.8204 28.777C25.3942 28.3723 24.8278 28.1465 24.2389 28.1465C23.6499 28.1465 23.0835 28.3723 22.6573 28.777L21.7773 29.653H26.7004L25.8204 28.777Z" fill="#A8A29E"/>
<path d="M15.3395 33.5664L14.0293 34.8708H37.3426V33.5664H15.3395Z" fill="#A8A29E"/>
<path d="M35.0265 27.5061C34.9457 27.4258 34.8362 27.3808 34.722 27.3809C34.6079 27.3809 34.4984 27.4261 34.4177 27.5064L32.2607 29.6537H35.3774V27.7734C35.25 27.6988 35.1321 27.609 35.0265 27.5061V27.5061Z" fill="#A8A29E"/>
<path d="M36.032 30.957H26.2051V32.2614H36.032V30.957Z" fill="#A8A29E"/>
<path d="M26.7386 1.93918C25.1167 1.99195 23.5774 2.6645 22.4404 3.81722C21.3034 4.96995 20.6559 6.5143 20.6325 8.12967L20.6638 11.5431L30.1676 1.90806L26.7386 1.93918Z" fill="#A8A29E"/>
<path d="M25.049 12.4628C26.6714 12.4247 28.2168 11.7662 29.3643 10.6238C30.5119 9.48146 31.1734 7.94306 31.2116 6.32796L31.2116 2.91435L21.62 12.4628L25.049 12.4628Z" fill="#A8A29E"/>
<path d="M11.5 2C15.5 4.5 17 7.5 17 12.5" stroke="#999999" stroke-width="2.5"/>
<path d="M47.3294 35V20.4545H50.845V26.2926H56.5765V20.4545H60.0851V35H56.5765V29.1548H50.845V35H47.3294ZM67.3897 35.206C66.2486 35.206 65.2638 34.9811 64.4352 34.5312C63.6113 34.0767 62.9769 33.4304 62.5318 32.5923C62.0914 31.7495 61.8713 30.7481 61.8713 29.5881C61.8713 28.4612 62.0938 27.4763 62.5389 26.6335C62.984 25.786 63.6113 25.1278 64.421 24.6591C65.2306 24.1856 66.1847 23.9489 67.2832 23.9489C68.0597 23.9489 68.7699 24.0696 69.4139 24.3111C70.0578 24.5526 70.6142 24.91 71.0829 25.3835C71.5517 25.857 71.9163 26.4418 72.1767 27.1378C72.4371 27.8291 72.5673 28.6222 72.5673 29.517V30.3835H63.0858V28.3665H69.3358C69.331 27.9972 69.2434 27.6681 69.073 27.3793C68.9025 27.0904 68.6681 26.8655 68.3699 26.7045C68.0763 26.5388 67.7377 26.456 67.3542 26.456C66.966 26.456 66.618 26.5436 66.3102 26.7188C66.0024 26.8892 65.7586 27.1236 65.5787 27.4219C65.3987 27.7154 65.304 28.0492 65.2946 28.4233V30.4759C65.2946 30.9209 65.3822 31.3116 65.5574 31.6477C65.7325 31.9792 65.9811 32.2372 66.3031 32.4219C66.6251 32.6065 67.0086 32.6989 67.4537 32.6989C67.7614 32.6989 68.0408 32.6562 68.2917 32.571C68.5427 32.4858 68.7581 32.3603 68.938 32.1946C69.118 32.0289 69.2529 31.8253 69.3429 31.5838L72.5318 31.6761C72.3992 32.3911 72.108 33.0137 71.6582 33.544C71.2131 34.0696 70.6284 34.4792 69.9039 34.7727C69.1795 35.0616 68.3414 35.206 67.3897 35.206ZM77.4164 35.1847C76.7203 35.1847 76.1025 35.0687 75.5627 34.8366C75.0276 34.5999 74.6039 34.2448 74.2914 33.7713C73.9836 33.2931 73.8297 32.6941 73.8297 31.9744C73.8297 31.3684 73.9363 30.857 74.1493 30.4403C74.3624 30.0237 74.656 29.6851 75.03 29.4247C75.4041 29.1643 75.8349 28.9678 76.3226 28.8352C76.8103 28.6979 77.3311 28.6056 77.8851 28.5582C78.5054 28.5014 79.0049 28.4422 79.3837 28.3807C79.7625 28.3144 80.0371 28.2221 80.2076 28.1037C80.3828 27.9806 80.4703 27.8078 80.4703 27.5852V27.5497C80.4703 27.1851 80.3449 26.9034 80.0939 26.7045C79.843 26.5057 79.5044 26.4062 79.0783 26.4062C78.619 26.4062 78.2497 26.5057 77.9703 26.7045C77.691 26.9034 77.5134 27.178 77.4377 27.5284L74.2346 27.4148C74.3292 26.7519 74.5731 26.16 74.9661 25.6392C75.3638 25.1136 75.9083 24.7017 76.5996 24.4034C77.2956 24.1004 78.1313 23.9489 79.1067 23.9489C79.8027 23.9489 80.4443 24.0317 81.0314 24.1974C81.6185 24.3584 82.1299 24.5952 82.5655 24.9077C83.0011 25.2154 83.3373 25.5942 83.574 26.044C83.8155 26.4938 83.9363 27.0076 83.9363 27.5852V35H80.6692V33.4801H80.584C80.3899 33.8494 80.1413 34.1619 79.8382 34.4176C79.54 34.6733 79.1872 34.8651 78.78 34.9929C78.3775 35.1207 77.923 35.1847 77.4164 35.1847ZM78.4888 32.9119C78.8629 32.9119 79.199 32.8362 79.4973 32.6847C79.8004 32.5331 80.0418 32.3248 80.2218 32.0597C80.4017 31.7898 80.4917 31.4773 80.4917 31.1222V30.0852C80.3922 30.1373 80.2715 30.1847 80.1294 30.2273C79.9921 30.2699 79.8406 30.3101 79.6749 30.348C79.5092 30.3859 79.3387 30.419 79.1635 30.4474C78.9883 30.4759 78.8203 30.5019 78.6593 30.5256C78.3326 30.5777 78.0532 30.6581 77.8212 30.767C77.5939 30.8759 77.4187 31.018 77.2956 31.1932C77.1773 31.3636 77.1181 31.5672 77.1181 31.804C77.1181 32.1638 77.2459 32.4384 77.5016 32.6278C77.762 32.8172 78.0911 32.9119 78.4888 32.9119ZM89.5328 20.4545V35H86.0598V20.4545H89.5328ZM97.9011 24.0909V26.6477H91.019V24.0909H97.9011ZM92.4608 21.4773H95.9338V31.5696C95.9338 31.7827 95.9669 31.9555 96.0332 32.0881C96.1042 32.2159 96.206 32.3082 96.3386 32.3651C96.4712 32.4171 96.6298 32.4432 96.8145 32.4432C96.947 32.4432 97.0867 32.4313 97.2335 32.4077C97.385 32.3793 97.4986 32.3556 97.5744 32.3366L98.1 34.8438C97.9342 34.8911 97.6999 34.9503 97.3968 35.0213C97.0985 35.0923 96.7411 35.1373 96.3244 35.1562C95.51 35.1941 94.8116 35.0994 94.2292 34.8722C93.6516 34.6402 93.2089 34.2803 92.9011 33.7926C92.5981 33.3049 92.4513 32.6918 92.4608 31.9531V21.4773ZM103.381 28.7784V35H99.9075V20.4545H103.267V26.0938H103.388C103.634 25.4214 104.036 24.8958 104.595 24.517C105.158 24.1383 105.847 23.9489 106.662 23.9489C107.429 23.9489 108.096 24.1193 108.665 24.4602C109.233 24.7964 109.673 25.2723 109.986 25.8878C110.303 26.5033 110.459 27.223 110.454 28.0469V35H106.981V28.7287C106.986 28.1226 106.835 27.6491 106.527 27.3082C106.219 26.9673 105.786 26.7969 105.227 26.7969C104.863 26.7969 104.541 26.8774 104.261 27.0384C103.987 27.1946 103.771 27.4195 103.615 27.7131C103.463 28.0066 103.385 28.3617 103.381 28.7784ZM114.355 39.0909C113.939 39.0909 113.546 39.0578 113.176 38.9915C112.807 38.9299 112.49 38.8471 112.225 38.7429L112.992 36.2216C113.333 36.3352 113.64 36.4015 113.915 36.4205C114.194 36.4394 114.433 36.3944 114.632 36.2855C114.836 36.1813 114.992 35.9943 115.101 35.7244L115.236 35.3977L111.358 24.0909H114.994L117.004 31.875H117.118L119.156 24.0909H122.814L118.702 36.044C118.503 36.6406 118.221 37.1662 117.857 37.6207C117.497 38.08 117.03 38.4399 116.458 38.7003C115.889 38.9607 115.189 39.0909 114.355 39.0909Z" fill="#A8A29E"/>
<path d="M128.443 35V20.4545H138.372V23.3097H131.958V26.2926H137.74V29.1548H131.958V35H128.443ZM143.041 35.1847C142.345 35.1847 141.727 35.0687 141.188 34.8366C140.653 34.5999 140.229 34.2448 139.916 33.7713C139.609 33.2931 139.455 32.6941 139.455 31.9744C139.455 31.3684 139.561 30.857 139.774 30.4403C139.987 30.0237 140.281 29.6851 140.655 29.4247C141.029 29.1643 141.46 28.9678 141.948 28.8352C142.435 28.6979 142.956 28.6056 143.51 28.5582C144.13 28.5014 144.63 28.4422 145.009 28.3807C145.387 28.3144 145.662 28.2221 145.833 28.1037C146.008 27.9806 146.095 27.8078 146.095 27.5852V27.5497C146.095 27.1851 145.97 26.9034 145.719 26.7045C145.468 26.5057 145.129 26.4062 144.703 26.4062C144.244 26.4062 143.875 26.5057 143.595 26.7045C143.316 26.9034 143.138 27.178 143.063 27.5284L139.86 27.4148C139.954 26.7519 140.198 26.16 140.591 25.6392C140.989 25.1136 141.533 24.7017 142.225 24.4034C142.921 24.1004 143.756 23.9489 144.732 23.9489C145.428 23.9489 146.069 24.0317 146.656 24.1974C147.244 24.3584 147.755 24.5952 148.191 24.9077C148.626 25.2154 148.962 25.5942 149.199 26.044C149.441 26.4938 149.561 27.0076 149.561 27.5852V35H146.294V33.4801H146.209C146.015 33.8494 145.766 34.1619 145.463 34.4176C145.165 34.6733 144.812 34.8651 144.405 34.9929C144.003 35.1207 143.548 35.1847 143.041 35.1847ZM144.114 32.9119C144.488 32.9119 144.824 32.8362 145.122 32.6847C145.425 32.5331 145.667 32.3248 145.847 32.0597C146.027 31.7898 146.117 31.4773 146.117 31.1222V30.0852C146.017 30.1373 145.896 30.1847 145.754 30.2273C145.617 30.2699 145.466 30.3101 145.3 30.348C145.134 30.3859 144.964 30.419 144.789 30.4474C144.613 30.4759 144.445 30.5019 144.284 30.5256C143.958 30.5777 143.678 30.6581 143.446 30.767C143.219 30.8759 143.044 31.018 142.921 31.1932C142.802 31.3636 142.743 31.5672 142.743 31.804C142.743 32.1638 142.871 32.4384 143.127 32.6278C143.387 32.8172 143.716 32.9119 144.114 32.9119ZM161.209 27.4219L158.02 27.5071C157.987 27.2798 157.897 27.0786 157.75 26.9034C157.603 26.7235 157.412 26.5838 157.175 26.4844C156.943 26.3802 156.673 26.3281 156.365 26.3281C155.963 26.3281 155.619 26.4086 155.335 26.5696C155.056 26.7306 154.919 26.9484 154.923 27.223C154.919 27.4361 155.004 27.6207 155.179 27.777C155.359 27.9332 155.679 28.0587 156.138 28.1534L158.24 28.5511C159.329 28.7595 160.139 29.1051 160.669 29.5881C161.204 30.071 161.474 30.7102 161.479 31.5057C161.474 32.2538 161.252 32.9048 160.811 33.4588C160.376 34.0128 159.779 34.4437 159.021 34.7514C158.264 35.0545 157.397 35.206 156.422 35.206C154.864 35.206 153.636 34.8864 152.736 34.2472C151.841 33.6032 151.33 32.7415 151.202 31.6619L154.632 31.5767C154.708 31.9744 154.905 32.2775 155.222 32.4858C155.539 32.6941 155.944 32.7983 156.436 32.7983C156.881 32.7983 157.244 32.7154 157.523 32.5497C157.802 32.384 157.944 32.1638 157.949 31.8892C157.944 31.643 157.835 31.4465 157.622 31.2997C157.409 31.1482 157.075 31.0298 156.621 30.9446L154.718 30.5824C153.624 30.3835 152.809 30.0166 152.274 29.4815C151.739 28.9418 151.474 28.2552 151.479 27.4219C151.474 26.6927 151.668 26.0701 152.061 25.554C152.454 25.0331 153.013 24.6354 153.737 24.3608C154.462 24.0862 155.316 23.9489 156.301 23.9489C157.779 23.9489 158.943 24.259 159.796 24.8793C160.648 25.4948 161.119 26.3423 161.209 27.4219ZM169.346 24.0909V26.6477H162.464V24.0909H169.346ZM163.906 21.4773H167.379V31.5696C167.379 31.7827 167.412 31.9555 167.479 32.0881C167.55 32.2159 167.651 32.3082 167.784 32.3651C167.916 32.4171 168.075 32.4432 168.26 32.4432C168.392 32.4432 168.532 32.4313 168.679 32.4077C168.83 32.3793 168.944 32.3556 169.02 32.3366L169.545 34.8438C169.38 34.8911 169.145 34.9503 168.842 35.0213C168.544 35.0923 168.186 35.1373 167.77 35.1562C166.955 35.1941 166.257 35.0994 165.675 34.8722C165.097 34.6402 164.654 34.2803 164.346 33.7926C164.043 33.3049 163.897 32.6918 163.906 31.9531V21.4773ZM175.415 35V20.4545H185.344V23.3097H178.931V26.2926H184.712V29.1548H178.931V35H175.415ZM191.406 35.206C190.26 35.206 189.275 34.9716 188.452 34.5028C187.632 34.0294 187 33.3712 186.555 32.5284C186.115 31.6809 185.895 30.6984 185.895 29.581C185.895 28.4588 186.115 27.4763 186.555 26.6335C187 25.786 187.632 25.1278 188.452 24.6591C189.275 24.1856 190.26 23.9489 191.406 23.9489C192.552 23.9489 193.534 24.1856 194.354 24.6591C195.177 25.1278 195.809 25.786 196.25 26.6335C196.695 27.4763 196.917 28.4588 196.917 29.581C196.917 30.6984 196.695 31.6809 196.25 32.5284C195.809 33.3712 195.177 34.0294 194.354 34.5028C193.534 34.9716 192.552 35.206 191.406 35.206ZM191.427 32.5852C191.844 32.5852 192.197 32.4574 192.486 32.2017C192.774 31.946 192.995 31.5909 193.146 31.1364C193.302 30.6818 193.381 30.1562 193.381 29.5597C193.381 28.9536 193.302 28.4233 193.146 27.9688C192.995 27.5142 192.774 27.1591 192.486 26.9034C192.197 26.6477 191.844 26.5199 191.427 26.5199C190.997 26.5199 190.632 26.6477 190.334 26.9034C190.04 27.1591 189.815 27.5142 189.659 27.9688C189.507 28.4233 189.432 28.9536 189.432 29.5597C189.432 30.1562 189.507 30.6818 189.659 31.1364C189.815 31.5909 190.04 31.946 190.334 32.2017C190.632 32.4574 190.997 32.5852 191.427 32.5852ZM203.789 35.206C202.643 35.206 201.658 34.9716 200.834 34.5028C200.015 34.0294 199.383 33.3712 198.938 32.5284C198.498 31.6809 198.278 30.6984 198.278 29.581C198.278 28.4588 198.498 27.4763 198.938 26.6335C199.383 25.786 200.015 25.1278 200.834 24.6591C201.658 24.1856 202.643 23.9489 203.789 23.9489C204.935 23.9489 205.917 24.1856 206.736 24.6591C207.56 25.1278 208.192 25.786 208.633 26.6335C209.078 27.4763 209.3 28.4588 209.3 29.581C209.3 30.6984 209.078 31.6809 208.633 32.5284C208.192 33.3712 207.56 34.0294 206.736 34.5028C205.917 34.9716 204.935 35.206 203.789 35.206ZM203.81 32.5852C204.227 32.5852 204.58 32.4574 204.868 32.2017C205.157 31.946 205.377 31.5909 205.529 31.1364C205.685 30.6818 205.763 30.1562 205.763 29.5597C205.763 28.9536 205.685 28.4233 205.529 27.9688C205.377 27.5142 205.157 27.1591 204.868 26.9034C204.58 26.6477 204.227 26.5199 203.81 26.5199C203.379 26.5199 203.015 26.6477 202.716 26.9034C202.423 27.1591 202.198 27.5142 202.042 27.9688C201.89 28.4233 201.814 28.9536 201.814 29.5597C201.814 30.1562 201.89 30.6818 202.042 31.1364C202.198 31.5909 202.423 31.946 202.716 32.2017C203.015 32.4574 203.379 32.5852 203.81 32.5852ZM215.064 35.1562C214.259 35.1562 213.527 34.9479 212.869 34.5312C212.211 34.1146 211.685 33.4896 211.292 32.6562C210.899 31.8229 210.703 30.7884 210.703 29.5526C210.703 28.2694 210.907 27.2135 211.314 26.3849C211.721 25.5563 212.254 24.9432 212.912 24.5455C213.575 24.1477 214.287 23.9489 215.05 23.9489C215.622 23.9489 216.113 24.0483 216.52 24.2472C216.927 24.4413 217.263 24.6922 217.528 25C217.793 25.3078 217.995 25.6274 218.132 25.9588H218.203V20.4545H221.676V35H218.238V33.2315H218.132C217.985 33.5677 217.777 33.8826 217.507 34.1761C217.237 34.4697 216.898 34.7064 216.491 34.8864C216.089 35.0663 215.613 35.1562 215.064 35.1562ZM216.271 32.4503C216.693 32.4503 217.052 32.3319 217.351 32.0952C217.649 31.8537 217.879 31.5152 218.04 31.0795C218.201 30.6439 218.281 30.1326 218.281 29.5455C218.281 28.9489 218.201 28.4351 218.04 28.0043C217.883 27.5734 217.654 27.242 217.351 27.0099C217.052 26.7779 216.693 26.6619 216.271 26.6619C215.84 26.6619 215.476 26.7803 215.177 27.017C214.879 27.2538 214.652 27.5876 214.496 28.0185C214.344 28.4493 214.268 28.9583 214.268 29.5455C214.268 30.1326 214.346 30.6439 214.503 31.0795C214.659 31.5152 214.884 31.8537 215.177 32.0952C215.476 32.3319 215.84 32.4503 216.271 32.4503Z" fill="#44403C"/>
</svg>
