<svg width="32" height="33" viewBox="0 0 32 33" fill="none" xmlns="http://www.w3.org/2000/svg">
<path d="M9.52637 29.1743H28.8637V27.2612H11.4322L9.52637 29.1743Z" fill="#A7A29E"/>
<path d="M3.13501 27.2612V29.1743H7.22585L5.32003 27.2612H3.13501Z" fill="#A7A29E"/>
<path d="M4.34238 20.9049C4.26517 20.981 4.17963 21.048 4.0874 21.1047V22.4796H6.35405L4.78533 20.9049C4.72655 20.8461 4.6469 20.813 4.56386 20.813C4.48081 20.813 4.40116 20.8461 4.34238 20.9049V20.9049Z" fill="#A7A29E"/>
<path d="M13.3374 21.8369C13.0274 21.5401 12.6155 21.3745 12.1872 21.3745C11.7588 21.3745 11.3469 21.5401 11.037 21.8369L10.397 22.4793H13.9774L13.3374 21.8369Z" fill="#A7A29E"/>
<path d="M10.7577 23.4355H3.61084V24.3921H10.7577V23.4355Z" fill="#A7A29E"/>
<path d="M8.03898 28.639C8.12841 28.7285 8.24955 28.7788 8.37584 28.7788C8.50214 28.7788 8.62327 28.7285 8.71271 28.639L11.9902 25.3491H4.76147L8.03898 28.639Z" fill="#A7A29E"/>
<path d="M17.1494 19.2953L17.7894 18.6528H14.209L14.849 19.2953C15.1543 19.601 15.5679 19.7727 15.9992 19.7727C16.4304 19.7727 16.8441 19.601 17.1494 19.2953V19.2953Z" fill="#A7A29E"/>
<path d="M24.7729 19.2953L25.4129 18.6528H21.8325L22.4725 19.2953C22.7778 19.601 23.1915 19.7727 23.6227 19.7727C24.054 19.7727 24.4676 19.601 24.7729 19.2953V19.2953Z" fill="#A7A29E"/>
<path d="M5.71453 19.1303C5.40459 18.8335 4.99269 18.6679 4.56434 18.6679C4.13598 18.6679 3.72408 18.8335 3.41415 19.1303L2.99562 19.5508C2.92896 19.6177 2.88356 19.7029 2.86514 19.7956C2.84673 19.8884 2.85613 19.9846 2.89217 20.0719C2.9282 20.1593 2.98925 20.234 3.06759 20.2866C3.14592 20.3392 3.23803 20.3672 3.33225 20.3672H3.33249C3.39501 20.3674 3.45694 20.3551 3.51469 20.331C3.57244 20.307 3.62485 20.2717 3.66889 20.2271C3.90662 19.9892 4.22861 19.8557 4.56427 19.8557C4.89993 19.8558 5.22188 19.9894 5.45955 20.2273L7.22577 22.0002C7.53106 22.306 7.94471 22.4777 8.37596 22.4777C8.80721 22.4777 9.22085 22.306 9.52615 22.0002L10.3637 21.1596C10.8477 20.6746 11.5037 20.4022 12.1876 20.4022C12.8715 20.4022 13.5275 20.6746 14.0115 21.1596L14.849 22.0002C15.1543 22.306 15.568 22.4777 15.9992 22.4777C16.4305 22.4777 16.8441 22.306 17.1494 22.0002L17.9869 21.1596C18.4711 20.6747 19.127 20.4025 19.8109 20.4025C20.4947 20.4025 21.1507 20.6747 21.6348 21.1596L22.4723 22.0002C22.7776 22.306 23.1913 22.4777 23.6225 22.4777C24.0538 22.4777 24.4674 22.306 24.7727 22.0002L26.5389 20.2273C26.7765 19.9894 27.0984 19.8557 27.434 19.8556C27.7697 19.8555 28.0916 19.989 28.3293 20.2269C28.42 20.314 28.5406 20.3627 28.6662 20.3628C28.7917 20.3628 28.9124 20.3142 29.0031 20.2271C29.0923 20.1374 29.1424 20.0158 29.1424 19.889C29.1424 19.7622 29.0923 19.6406 29.0031 19.5509L28.5841 19.1303C28.2742 18.8335 27.8624 18.6679 27.4341 18.6679C27.0057 18.6679 26.5939 18.8335 26.284 19.1303L25.4465 19.971C24.9624 20.4559 24.3064 20.7283 23.6225 20.7283C22.9386 20.7283 22.2827 20.4559 21.7986 19.971L20.9611 19.1303C20.6558 18.8245 20.2421 18.6528 19.8109 18.6528C19.3796 18.6528 18.966 18.8245 18.6607 19.1303L17.8232 19.971C17.3391 20.4559 16.6832 20.7283 15.9993 20.7283C15.3154 20.7283 14.6594 20.4559 14.1753 19.971L13.3378 19.1303C13.0325 18.8245 12.6189 18.6528 12.1876 18.6528C11.7564 18.6528 11.3427 18.8245 11.0374 19.1303L10.1999 19.971C9.71586 20.4559 9.05989 20.7283 8.37599 20.7283C7.69208 20.7283 7.03612 20.4559 6.55206 19.971L5.71453 19.1303Z" fill="#A7A29E"/>
<path d="M3.414 25.3491H2.18188V26.3056H4.3669L3.414 25.3491Z" fill="#A7A29E"/>
<path d="M20.2871 24.3921V23.4355H11.7109V24.3921H13.1403H20.2871Z" fill="#A7A29E"/>
<path d="M9.52559 19.2953L10.1656 18.6528H6.58521L7.22521 19.2953C7.5305 19.601 7.94415 19.7727 8.3754 19.7727C8.80665 19.7727 9.22029 19.601 9.52559 19.2953V19.2953Z" fill="#A7A29E"/>
<path d="M24.0989 11H7.89945C6.50993 11.0016 5.17777 11.5564 4.19523 12.5426C3.2127 13.5289 2.66002 14.8661 2.65845 16.2609V17.6957H29.3399V16.2609C29.3383 14.8661 28.7857 13.5289 27.8031 12.5426C26.8206 11.5564 25.4884 11.0016 24.0989 11V11ZM5.85403 14.2077L5.18032 13.5314L6.13323 12.5749L6.80694 13.2512L5.85403 14.2077ZM8.03902 16.1207L7.08611 15.1642L7.75985 14.488L8.71275 15.4445L8.03902 16.1207ZM10.4213 12.0966L11.095 12.7729L10.1421 13.7294L9.46841 13.0532L10.4213 12.0966ZM10.6186 16.599L9.94487 15.9227L10.8978 14.9662L11.5715 15.6425L10.6186 16.599ZM14.0934 15.3043H13.1404V13.8696H14.0934V15.3043ZM16.1388 12.0967L16.8125 12.7729L15.8596 13.7294L15.1859 13.0532L16.1388 12.0967ZM16.6152 16.599L15.6623 15.6425L16.336 14.9662L17.2889 15.9227L16.6152 16.599ZM18.9975 15.1642L18.0446 14.2077L18.7183 13.5314L19.6712 14.488L18.9975 15.1642ZM20.7637 13.3913H19.8108V11.9565H20.7637V13.3913ZM22.6695 16.2609H21.2402V15.3043H22.6695V16.2609ZM23.0064 13.7294L22.3327 13.0532L23.2856 12.0967L23.9593 12.7729L23.0064 13.7294ZM25.5283 16.7391H24.5754V15.3043H25.5283V16.7391ZM26.1443 14.2077L25.1914 13.2512L25.8651 12.5749L26.818 13.5314L26.1443 14.2077Z" fill="#A7A29E"/>
<path d="M2.65845 31.5661C2.65886 31.9465 2.80959 32.3112 3.07756 32.5802C3.34552 32.8492 3.70885 33.0005 4.08781 33.0009H27.9105C28.2895 33.0005 28.6528 32.8492 28.9208 32.5802C29.1888 32.3112 29.3395 31.9465 29.3399 31.5661V30.1313H2.65845V31.5661Z" fill="#A7A29E"/>
<path d="M20.9604 21.8369C20.6505 21.5401 20.2386 21.3745 19.8102 21.3745C19.3819 21.3745 18.97 21.5401 18.66 21.8369L18.02 22.4793H21.6004L20.9604 21.8369Z" fill="#A7A29E"/>
<path d="M13.3379 25.3491L12.385 26.3056H29.3401V25.3491H13.3379Z" fill="#A7A29E"/>
<path d="M27.6557 20.9048C27.597 20.846 27.5173 20.8129 27.4343 20.813C27.3513 20.813 27.2717 20.8461 27.213 20.9051L25.6443 22.4797H27.9109V21.1009C27.8183 21.0462 27.7326 20.9803 27.6557 20.9048V20.9048Z" fill="#A7A29E"/>
<path d="M28.3871 23.4355H21.2402V24.3921H28.3871V23.4355Z" fill="#A7A29E"/>
<path d="M21.6281 2.15582C20.4485 2.19452 19.329 2.68772 18.5021 3.53305C17.6751 4.37839 17.2043 5.51091 17.1873 6.69551L17.21 9.19872L24.1218 2.133L21.6281 2.15582Z" fill="#A7A29E"/>
<path d="M12.1761 4.70005C13.1209 4.31554 14.0418 4.34945 14.7475 4.79475C15.4533 5.24005 15.8897 6.06252 15.9662 7.09143L16.0808 9.28645L10.1819 5.56443L12.1761 4.70005Z" fill="#A7A29E"/>
</svg>
