<svg width="41" height="47" viewBox="0 0 41 47" fill="none" xmlns="http://www.w3.org/2000/svg">
<path d="M38 23V24.2H39.2V23H38ZM3 23H1.8V24.2H3V23ZM10 16.2H31V13.8H10V16.2ZM36.8 22V23H39.2V22H36.8ZM38 21.8H3V24.2H38V21.8ZM4.2 23V22H1.8V23H4.2ZM31 16.2C34.2033 16.2 36.8 18.7967 36.8 22H39.2C39.2 17.4713 35.5287 13.8 31 13.8V16.2ZM10 13.8C5.47127 13.8 1.8 17.4713 1.8 22H4.2C4.2 18.7967 6.79675 16.2 10 16.2V13.8Z" fill="#231F1F"/>
<path d="M3 42C3 43.6569 4.34315 45 6 45H35C36.6569 45 38 43.6569 38 42V40H3V42Z" stroke="#231F1F" stroke-width="2.4"/>
<path d="M3 34C3 35.1046 3.89543 36 5 36H36C37.1046 36 38 35.1046 38 34V34C38 32.8954 37.1046 32 36 32H5C3.89543 32 3 32.8954 3 34V34Z" stroke="#231F1F" stroke-width="2.4" stroke-linejoin="round"/>
<mask id="path-4-inside-1_3157_10" fill="white">
<path fill-rule="evenodd" clip-rule="evenodd" d="M21.4599 11.0413C27.1038 12.3733 32.6561 9.31357 33.8613 4.20715C34.0615 3.35868 34.1292 2.5071 34.0768 1.67074C27.8133 0.226199 21.6982 3.5012 20.3982 9.00973C20.2687 9.55829 20.1919 10.1084 20.1646 10.6558C20.5828 10.8071 21.015 10.9363 21.4599 11.0413Z"/>
</mask>
<path d="M34.0768 1.67074L36.4722 1.52086L36.3604 -0.265614L34.6162 -0.667869L34.0768 1.67074ZM20.1646 10.6558L17.7676 10.5364L17.6793 12.3085L19.3477 12.9125L20.1646 10.6558ZM31.5255 3.65587C30.6754 7.25779 26.5905 9.78624 22.0112 8.70547L20.9086 13.3771C27.6172 14.9604 34.6369 11.3693 36.1971 4.75842L31.5255 3.65587ZM31.6815 1.82063C31.7194 2.42566 31.6706 3.04085 31.5255 3.65587L36.1971 4.75842C36.4525 3.67651 36.539 2.58853 36.4722 1.52086L31.6815 1.82063ZM22.734 9.561C23.6665 5.60969 28.2706 2.79467 33.5375 4.00936L34.6162 -0.667869C27.3559 -2.34228 19.7299 1.39271 18.0623 8.45845L22.734 9.561ZM22.5616 10.7751C22.5817 10.3722 22.6383 9.96668 22.734 9.561L18.0623 8.45845C17.8992 9.14989 17.802 9.84458 17.7676 10.5364L22.5616 10.7751ZM22.0112 8.70547C21.6563 8.62173 21.3128 8.51899 20.9815 8.39906L19.3477 12.9125C19.8527 13.0953 20.3736 13.2509 20.9086 13.3771L22.0112 8.70547Z" fill="#231F1F" mask="url(#path-4-inside-1_3157_10)"/>
<path d="M15 5.00002C19 6.5 21 10.5 19.4559 14.5243" stroke="#231F1F" stroke-width="2.4"/>
<path d="M3 27.5C4.2 28.8333 5.4 28.8333 6.6 27.5C7.8 26.1667 9 26.1667 10.2 27.5C11.4 28.8333 12.6 28.8333 13.8 27.5C15 26.1667 16.2 26.1667 17.4 27.5C18.6 28.8333 19.8 28.8333 21 27.5C22.2 26.1667 23.4 26.1667 24.6 27.5C25.8 28.8333 27 28.8333 28.2 27.5C29.4 26.1667 30.6 26.1667 31.8 27.5C33 28.8333 34.2 28.8333 35.4 27.5C36.6 26.1667 37.8 26.1667 39 27.5" stroke="#231F1F" stroke-width="2.4" stroke-linecap="round" stroke-linejoin="round"/>
</svg>
